<svg class="svg-icon" style="width: 1em; height: 1em;vertical-align: middle;fill: white;overflow: hidden;" viewBox="0 0 1024 1024" version="1.1" xmlns="http://www.w3.org/2000/svg"><path d="M977.92 903.168c0 41.218048-33.533952 74.752-74.752 74.752L657.408 977.92c-41.218048 0-74.752-33.533952-74.752-74.752L582.656 667.648c0-13.007872 10.544128-23.552 23.552-23.552s23.552 10.544128 23.552 23.552l0 235.52c0 15.245312 12.402688 27.648 27.648 27.648l245.76 0c15.245312 0 27.648-12.402688 27.648-27.648L930.816 636.928c0-15.245312-12.402688-27.648-27.648-27.648L688.128 609.28c-13.007872 0-23.552-10.544128-23.552-23.552s10.544128-23.552 23.552-23.552l215.04 0c41.218048 0 74.752 33.533952 74.752 74.752L977.92 903.168z"  /><path d="M710.760448 711.68l133.12 0c13.007872 0 23.552-10.544128 23.552-23.552s-10.544128-23.552-23.552-23.552l-133.12 0c-13.007872 0-23.552 10.544128-23.552 23.552S697.752576 711.68 710.760448 711.68z"  /><path d="M710.760448 814.08l133.12 0c13.007872 0 23.552-10.544128 23.552-23.552s-10.544128-23.552-23.552-23.552l-133.12 0c-13.007872 0-23.552 10.544128-23.552 23.552S697.752576 814.08 710.760448 814.08z"  /><path d="M530.102272 53.577728c-9.998336-9.998336-26.206208-9.998336-36.20352 0l-440.32 440.32c-9.997312 9.998336-9.997312 26.206208 0 36.20352s26.206208 9.998336 36.20352 0L512 107.88352l422.217728 422.217728C939.216896 535.10144 945.768448 537.6 952.32 537.6s13.103104-2.49856 18.102272-7.497728c9.997312-9.998336 9.997312-26.206208 0-36.20352L530.102272 53.577728z"  /><path d="M183.051264 558.451712c-14.138368 0-25.6 11.461632-25.6 25.6L157.451264 952.32c0 14.138368 11.461632 25.6 25.6 25.6l326.30272 0c14.138368 0 25.6-11.461632 25.6-25.6 0-14.139392-11.461632-25.6-25.6-25.6L208.651264 926.72 208.651264 584.051712C208.651264 569.914368 197.189632 558.451712 183.051264 558.451712z"  /></svg>