<svg class="svg-icon" style="width: 1em; height: 1em;vertical-align: middle;fill: white;overflow: hidden;" viewBox="0 0 1024 1024" version="1.1" xmlns="http://www.w3.org/2000/svg"><path d="M309.4 301L203.9 532c-1.2 2.6-1.9 5.6-1.7 8.4 2.3 57.4 49.6 103.2 107.5 103.2s105.2-45.8 107.5-103.1c0.1-2.9-0.5-5.8-1.8-8.5l-106-231z m0 73.8L369 505.3H249.8l59.6-130.5z m0.3 238.1c-42.4 0-76.9-34.5-76.9-76.9h153.9c-0.1 42.4-34.6 76.9-77 76.9zM711.6 301L606.2 532c-1.2 2.6-1.9 5.6-1.7 8.4 2.3 57.4 49.6 103.2 107.5 103.2s105.2-45.8 107.5-103.1c0.1-2.9-0.5-5.8-1.8-8.5L711.6 301z m0 73.8l59.6 130.5H652l59.6-130.5z m0.3 238.1c-42.4 0-76.9-34.5-76.9-76.9h153.9c0 42.4-34.5 76.9-77 76.9zM510.3 698.2c-8.5 0-15.3-6.9-15.3-15.3V253.8c0-8.5 6.9-15.3 15.3-15.3 8.5 0 15.3 6.9 15.3 15.3v429.1c0 8.4-6.8 15.3-15.3 15.3z" fill="white" /><path d="M788.9 327.8H238.2c-8.5 0-15.3-6.9-15.3-15.3s6.9-15.3 15.3-15.3h550.7c8.5 0 15.3 6.9 15.3 15.3s-6.8 15.3-15.3 15.3zM510.3 699.9c38.6 0 71.5 23.6 85 57.4h-170c13.5-33.8 46.4-57.4 85-57.4m0-30.6c-66.4 0-120.1 52.9-122.1 118.7h244.3c-2.1-65.9-55.8-118.7-122.2-118.7z" fill="white" /></svg>