<svg class="svg-icon" style="width: 1em;height: 1em;vertical-align: middle;fill: currentColor;overflow: hidden;" viewBox="0 0 1024 1024" version="1.1" xmlns="http://www.w3.org/2000/svg"><path d="M641.187999 465.483411A241.632248 241.632248 0 0 0 257.307069 750.615814L102.99265 904.930233a69.695504 69.695504 0 1 0 98.748527 98.589767l154.155659-154.155659a241.791008 241.791008 0 0 0 285.767442-383.88093zM173.323193 975.102016a30.164341 30.164341 0 0 1-41.912559 0 29.370543 29.370543 0 0 1 0-41.753799l148.281551-148.44031a2.063876 2.063876 0 0 0 0.793798 0.952558 219.723411 219.723411 0 0 0 18.892403 21.432558 244.807442 244.807442 0 0 0 21.432558 19.051163h0.793799z m439.446821-196.068218a200.354729 200.354729 0 0 1-249.411473 28.259225 204.64124 204.64124 0 0 1-35.56217-28.259225 211.944186 211.944186 0 0 1-28.259225-35.72093 201.624806 201.624806 0 1 1 313.550388 35.72093z"  /><path d="M941.085053 199.084651a18.257364 18.257364 0 0 0-1.746357-4.92155 3.968992 3.968992 0 0 0 0-1.111318 13.653333 13.653333 0 0 0-3.175193-4.286512L752.637301 5.874109a21.432558 21.432558 0 0 0-4.286512-3.175194h-1.111317a18.257364 18.257364 0 0 0-4.921551-2.698915H233.175596a93.191938 93.191938 0 0 0-93.191938 93.191938v774.906046l40.007442-40.166201V93.191938a53.184496 53.184496 0 0 1 53.184496-53.184496H717.710169v89.699225a93.509457 93.509457 0 0 0 93.350698 93.350697h89.699225v654.248683a53.343256 53.343256 0 0 1-53.184496 53.343255h-573.122481l-39.848682 40.007442h613.606201a93.191938 93.191938 0 0 0 93.191938-93.350697V202.894884a28.417984 28.417984 0 0 0-0.317519-3.810233z m-129.389147-15.875969a53.184496 53.184496 0 0 1-53.184496-53.184496V68.266667l114.624496 114.624496z"  /><path d="M470.203813 783.16155a146.852713 146.852713 0 1 1 147.011473-146.852713 146.852713 146.852713 0 0 1-147.011473 146.852713z m0-254.015503a106.845271 106.845271 0 1 0 106.845271 106.845271 107.004031 107.004031 0 0 0-106.845271-106.527752z"  /><path d="M642.299317 144.630078h-393.724031a20.162481 20.162481 0 0 1 0-40.166202h393.724031a20.162481 20.162481 0 1 1 0 40.166202zM289.059007 248.935194h-40.483721a20.003721 20.003721 0 0 1 0-40.007442H289.059007a20.003721 20.003721 0 0 1 0 40.007442zM829.95327 353.557829H389.71265a20.003721 20.003721 0 1 1 0-40.007441h440.24062a20.003721 20.003721 0 0 1 0 40.007441zM642.299317 248.935194H389.71265a20.003721 20.003721 0 1 1 0-40.007442h252.586667a20.003721 20.003721 0 1 1 0 40.007442zM289.059007 353.557829h-40.483721a20.003721 20.003721 0 0 1 0-40.007441H289.059007a20.003721 20.003721 0 0 1 0 40.007441zM829.95327 457.862946h-123.832558a20.003721 20.003721 0 1 1 0-39.848682h123.832558a20.003721 20.003721 0 1 1 0 39.848682zM829.95327 562.326822H755.812495a20.003721 20.003721 0 1 1 0-39.848682h74.140775a20.003721 20.003721 0 1 1 0 39.848682zM829.95327 666.790698h-60.487442a20.003721 20.003721 0 0 1 0-40.007442h60.487442a20.003721 20.003721 0 0 1 0 40.007442zM829.95327 771.413333H755.812495a20.162481 20.162481 0 0 1 0-40.166201h74.140775a20.162481 20.162481 0 0 1 0 40.166201z"  /></svg>